<svg width="160" height="53" viewBox="0 0 160 53" fill="none" xmlns="http://www.w3.org/2000/svg">
<g clip-path="url(#clip0_143_6701)">
<path d="M0.333496 12.6477C0.333496 8.71899 0.333496 6.75463 0.97533 5.2051C1.83111 3.13907 3.47256 1.49761 5.5386 0.641834C7.08812 0 9.05249 0 12.9812 0H146.686C150.615 0 152.579 0 154.128 0.641834C156.194 1.49761 157.836 3.13907 158.692 5.2051C159.333 6.75463 159.333 8.71899 159.333 12.6477V40.3523C159.333 44.281 159.333 46.2454 158.692 47.7949C157.836 49.8609 156.194 51.5024 154.128 52.3582C152.579 53 150.615 53 146.686 53H12.9812C9.05249 53 7.08812 53 5.5386 52.3582C3.47256 51.5024 1.83111 49.8609 0.97533 47.7949C0.333496 46.2454 0.333496 44.281 0.333496 40.3523V12.6477Z" fill="#0C0D10"/>
<path d="M108.355 25.4414V28.477H106.453V30.4677H108.355V37.2318C108.355 39.5415 109.4 40.4654 112.029 40.4654C112.491 40.4654 112.931 40.4104 113.316 40.3444V38.3756C112.986 38.4086 112.777 38.4306 112.414 38.4306C111.237 38.4306 110.72 37.8807 110.72 36.6269V30.4677H113.316V28.477H110.72V25.4414H108.355Z" fill="white"/>
<path d="M120.012 40.6302C123.51 40.6302 125.654 38.2876 125.654 34.4051C125.654 30.5446 123.499 28.1909 120.012 28.1909C116.514 28.1909 114.359 30.5446 114.359 34.4051C114.359 38.2876 116.503 40.6302 120.012 40.6302ZM120.012 38.5295C117.955 38.5295 116.8 37.0227 116.8 34.4051C116.8 31.8094 117.955 30.2916 120.012 30.2916C122.058 30.2916 123.224 31.8094 123.224 34.4051C123.224 37.0117 122.058 38.5295 120.012 38.5295Z" fill="white"/>
<path d="M127.489 40.3995H129.854V33.3274C129.854 31.6446 131.119 30.5118 132.912 30.5118C133.329 30.5118 134.033 30.5888 134.231 30.6548V28.3231C133.978 28.2571 133.527 28.2241 133.175 28.2241C131.614 28.2241 130.283 29.082 129.942 30.2588H129.766V28.4221H127.489V40.3995Z" fill="white"/>
<path d="M140.103 30.2036C141.852 30.2036 142.995 31.4245 143.05 33.3052H137.001C137.133 31.4355 138.354 30.2036 140.103 30.2036ZM143.039 37.1657C142.599 38.1006 141.621 38.6175 140.191 38.6175C138.299 38.6175 137.078 37.2867 137.001 35.186V35.054H145.459V34.2291C145.459 30.4676 143.446 28.1909 140.114 28.1909C136.737 28.1909 134.593 30.6216 134.593 34.4491C134.593 38.2766 136.693 40.6302 140.125 40.6302C142.863 40.6302 144.777 39.3104 145.316 37.1657H143.039Z" fill="white"/>
<path d="M92.8481 35.9764C93.0305 38.9175 95.4815 40.7985 99.1295 40.7985C103.028 40.7985 105.467 38.8263 105.467 35.68C105.467 33.2063 104.077 31.8383 100.702 31.0518L98.89 30.6072C96.7468 30.1056 95.8805 29.433 95.8805 28.2588C95.8805 26.7769 97.2256 25.8079 99.2435 25.8079C101.158 25.8079 102.481 26.7541 102.72 28.2702H105.205C105.057 25.5001 102.618 23.5508 99.2776 23.5508C95.6867 23.5508 93.2927 25.5001 93.2927 28.4298C93.2927 30.8466 94.6493 32.2829 97.6246 32.9783L99.7449 33.4913C101.922 34.0043 102.88 34.7566 102.88 36.0106C102.88 37.4698 101.375 38.5299 99.3232 38.5299C97.123 38.5299 95.5955 37.5382 95.3789 35.9764H92.8481Z" fill="white"/>
<path d="M68.3524 28.2241C66.7246 28.2241 65.3168 29.038 64.5909 30.4018H64.4149V28.4221H62.1382V44.3809H64.5029V38.5847H64.6899C65.3168 39.8496 66.6696 40.5975 68.3744 40.5975C71.399 40.5975 73.3238 38.2108 73.3238 34.4053C73.3238 30.5998 71.399 28.2241 68.3524 28.2241ZM67.6815 38.4747C65.7018 38.4747 64.4589 36.9129 64.4589 34.4163C64.4589 31.9086 65.7018 30.3468 67.6925 30.3468C69.6942 30.3468 70.8931 31.8756 70.8931 34.4053C70.8931 36.9459 69.6942 38.4747 67.6815 38.4747Z" fill="white"/>
<path d="M81.598 28.2241C79.9702 28.2241 78.5624 29.038 77.8365 30.4018H77.6605V28.4221H75.3838V44.3809H77.7485V38.5847H77.9355C78.5624 39.8496 79.9152 40.5975 81.62 40.5975C84.6446 40.5975 86.5693 38.2108 86.5693 34.4053C86.5693 30.5998 84.6446 28.2241 81.598 28.2241ZM80.9271 38.4747C78.9473 38.4747 77.7045 36.9129 77.7045 34.4163C77.7045 31.9086 78.9473 30.3468 80.9381 30.3468C82.9398 30.3468 84.1386 31.8756 84.1386 34.4053C84.1386 36.9459 82.9398 38.4747 80.9271 38.4747Z" fill="white"/>
<path d="M57.8955 40.3994H60.6086L54.6694 23.9497H51.9221L45.9829 40.3994H48.6048L50.1209 36.0333H56.3907L57.8955 40.3994ZM53.1646 26.9364H53.3584L55.741 33.8902H50.7707L53.1646 26.9364Z" fill="white"/>
<path d="M47.5713 11.542V19.4775H50.4365C52.8011 19.4775 54.1705 18.0202 54.1705 15.485C54.1705 12.9883 52.7901 11.542 50.4365 11.542H47.5713ZM48.8032 12.6639H50.299C51.9433 12.6639 52.9166 13.7087 52.9166 15.5015C52.9166 17.3217 51.9598 18.3556 50.299 18.3556H48.8032V12.6639Z" fill="white"/>
<path d="M58.3642 19.5926C60.113 19.5926 61.1853 18.4213 61.1853 16.4801C61.1853 14.5498 60.1075 13.373 58.3642 13.373C56.6154 13.373 55.5376 14.5498 55.5376 16.4801C55.5376 18.4213 56.6099 19.5926 58.3642 19.5926ZM58.3642 18.5423C57.3358 18.5423 56.7584 17.7889 56.7584 16.4801C56.7584 15.1822 57.3358 14.4233 58.3642 14.4233C59.3871 14.4233 59.97 15.1822 59.97 16.4801C59.97 17.7834 59.3871 18.5423 58.3642 18.5423Z" fill="white"/>
<path d="M70.3174 13.4888H69.1351L68.0682 18.0586H67.9747L66.7429 13.4888H65.61L64.3782 18.0586H64.2902L63.2179 13.4888H62.019L63.6688 19.4775H64.8841L66.116 15.067H66.2095L67.4468 19.4775H68.6731L70.3174 13.4888Z" fill="white"/>
<path d="M71.6787 19.4772H72.8611V15.9741C72.8611 15.0392 73.4165 14.4563 74.2909 14.4563C75.1653 14.4563 75.5832 14.9348 75.5832 15.8971V19.4772H76.7655V15.6002C76.7655 14.1759 76.0286 13.373 74.6923 13.373C73.7904 13.373 73.1965 13.7744 72.9051 14.4398H72.8171V13.4885H71.6787V19.4772Z" fill="white"/>
<path d="M78.6279 19.4773H79.8102V11.1514H78.6279V19.4773Z" fill="white"/>
<path d="M84.2569 19.5926C86.0056 19.5926 87.078 18.4213 87.078 16.4801C87.078 14.5498 86.0001 13.373 84.2569 13.373C82.5081 13.373 81.4302 14.5498 81.4302 16.4801C81.4302 18.4213 82.5026 19.5926 84.2569 19.5926ZM84.2569 18.5423C83.2285 18.5423 82.6511 17.7889 82.6511 16.4801C82.6511 15.1822 83.2285 14.4233 84.2569 14.4233C85.2797 14.4233 85.8626 15.1822 85.8626 16.4801C85.8626 17.7834 85.2797 18.5423 84.2569 18.5423Z" fill="white"/>
<path d="M90.6009 18.5808C89.9575 18.5808 89.4901 18.2673 89.4901 17.7284C89.4901 17.2005 89.864 16.92 90.6889 16.865L92.1518 16.7715V17.272C92.1518 18.0144 91.4918 18.5808 90.6009 18.5808ZM90.2984 19.5761C91.0849 19.5761 91.7394 19.2352 92.0968 18.6358H92.1903V19.4772H93.3286V15.3857C93.3286 14.1209 92.4818 13.373 90.9804 13.373C89.622 13.373 88.6542 14.0329 88.5332 15.0612H89.677C89.8091 14.6378 90.2655 14.3958 90.9254 14.3958C91.7339 14.3958 92.1518 14.7533 92.1518 15.3857V15.9026L90.5294 15.9961C89.1051 16.0841 88.3022 16.7055 88.3022 17.7834C88.3022 18.8777 89.1436 19.5761 90.2984 19.5761Z" fill="white"/>
<path d="M97.3407 19.5762C98.1656 19.5762 98.864 19.1858 99.2215 18.5314H99.3149V19.4773H100.448V11.1514H99.2655V14.4399H99.1775C98.853 13.78 98.1601 13.3896 97.3407 13.3896C95.8284 13.3896 94.855 14.5884 94.855 16.4802C94.855 18.3774 95.8174 19.5762 97.3407 19.5762ZM97.6762 14.4509C98.666 14.4509 99.2875 15.2373 99.2875 16.4857C99.2875 17.7395 98.6715 18.5149 97.6762 18.5149C96.6753 18.5149 96.0759 17.7505 96.0759 16.4802C96.0759 15.2208 96.6808 14.4509 97.6762 14.4509Z" fill="white"/>
<path d="M108.115 19.5926C109.864 19.5926 110.936 18.4213 110.936 16.4801C110.936 14.5498 109.858 13.373 108.115 13.373C106.366 13.373 105.288 14.5498 105.288 16.4801C105.288 18.4213 106.361 19.5926 108.115 19.5926ZM108.115 18.5423C107.087 18.5423 106.509 17.7889 106.509 16.4801C106.509 15.1822 107.087 14.4233 108.115 14.4233C109.138 14.4233 109.721 15.1822 109.721 16.4801C109.721 17.7834 109.138 18.5423 108.115 18.5423Z" fill="white"/>
<path d="M112.501 19.4772H113.683V15.9741C113.683 15.0392 114.239 14.4563 115.113 14.4563C115.988 14.4563 116.406 14.9348 116.406 15.8971V19.4772H117.588V15.6002C117.588 14.1759 116.851 13.373 115.515 13.373C114.613 13.373 114.019 13.7744 113.727 14.4398H113.639V13.4885H112.501V19.4772Z" fill="white"/>
<path d="M123.033 11.9985V13.5163H122.082V14.5116H123.033V17.8937C123.033 19.0485 123.556 19.5105 124.87 19.5105C125.101 19.5105 125.321 19.483 125.513 19.45V18.4656C125.348 18.4821 125.244 18.4931 125.063 18.4931C124.474 18.4931 124.216 18.2181 124.216 17.5912V14.5116H125.513V13.5163H124.216V11.9985H123.033Z" fill="white"/>
<path d="M127.101 19.4773H128.283V15.9797C128.283 15.0723 128.822 14.4619 129.79 14.4619C130.626 14.4619 131.071 14.9459 131.071 15.9027V19.4773H132.253V15.6113C132.253 14.187 131.467 13.3786 130.191 13.3786C129.289 13.3786 128.657 13.78 128.365 14.4509H128.272V11.1514H127.101V19.4773Z" fill="white"/>
<path d="M136.519 14.3793C137.393 14.3793 137.965 14.9898 137.992 15.9301H134.968C135.034 14.9953 135.644 14.3793 136.519 14.3793ZM137.987 17.8604C137.767 18.3278 137.277 18.5863 136.563 18.5863C135.617 18.5863 135.006 17.9209 134.968 16.8705V16.8045H139.197V16.3921C139.197 14.5113 138.19 13.373 136.524 13.373C134.836 13.373 133.763 14.5883 133.763 16.5021C133.763 18.4158 134.814 19.5926 136.53 19.5926C137.899 19.5926 138.856 18.9327 139.125 17.8604H137.987Z" fill="white"/>
<path d="M33.1523 26.8988C33.181 24.6714 34.3772 22.5639 36.2748 21.3973C35.0777 19.6876 33.0726 18.6036 30.9865 18.5384C28.7615 18.3048 26.6044 19.8698 25.4706 19.8698C24.3149 19.8698 22.5692 18.5615 20.6894 18.6002C18.2391 18.6794 15.9548 20.0725 14.7627 22.2146C12.2002 26.6513 14.1116 33.1717 16.5663 36.758C17.7945 38.514 19.2298 40.4756 21.1079 40.4061C22.9458 40.3299 23.6322 39.2341 25.8506 39.2341C28.0485 39.2341 28.6925 40.4061 30.6087 40.3619C32.5808 40.3298 33.8233 38.598 35.0084 36.8252C35.8908 35.574 36.5698 34.191 37.0203 32.7277C34.7027 31.7474 33.155 29.4151 33.1523 26.8988Z" fill="white"/>
<path d="M29.5328 16.1798C30.608 14.8889 31.1378 13.2298 31.0095 11.5547C29.3667 11.7272 27.8492 12.5124 26.7595 13.7537C25.6938 14.9665 25.1392 16.5964 25.244 18.2075C26.8874 18.2244 28.503 17.4606 29.5328 16.1798Z" fill="white"/>
<path d="M5.53856 52.3582L5.0776 53.471L5.53856 52.3582ZM0.975285 47.7949L-0.13757 48.2559L0.975285 47.7949ZM158.692 47.7949L159.805 48.2559L158.692 47.7949ZM154.128 52.3582L153.667 51.2453L154.128 52.3582ZM154.128 0.641794L153.667 1.75465L154.128 0.641794ZM158.692 5.20506L159.805 4.7441L158.692 5.20506ZM5.53856 0.641794L5.99952 1.75465L5.53856 0.641794ZM12.9812 1.20451H146.686V-1.20459H12.9812V1.20451ZM158.129 12.6477V40.3523H160.538V12.6477H158.129ZM146.686 51.7955H12.9812V54.2045H146.686V51.7955ZM1.538 40.3523V12.6477H-0.871094V40.3523H1.538ZM12.9812 51.7955C11.0004 51.7955 9.57502 51.7948 8.44966 51.718C7.33512 51.642 6.60303 51.4953 5.99952 51.2453L5.0776 53.471C6.02359 53.8629 7.04847 54.0371 8.28567 54.1215C9.51206 54.2052 11.0333 54.2045 12.9812 54.2045V51.7955ZM-0.871094 40.3523C-0.871094 42.3002 -0.871747 43.8214 -0.788071 45.0478C-0.703657 46.285 -0.529415 47.3099 -0.13757 48.2559L2.08814 47.3339C1.83816 46.7304 1.69148 45.9983 1.61544 44.8838C1.53865 43.7584 1.538 42.3331 1.538 40.3523H-0.871094ZM5.99952 51.2453C4.22863 50.5118 2.82167 49.1048 2.08814 47.3339L-0.13757 48.2559C0.840463 50.617 2.71642 52.493 5.0776 53.471L5.99952 51.2453ZM158.129 40.3523C158.129 42.3331 158.128 43.7584 158.052 44.8838C157.975 45.9983 157.829 46.7304 157.579 47.3339L159.805 48.2559C160.196 47.3099 160.371 46.285 160.455 45.0478C160.539 43.8214 160.538 42.3002 160.538 40.3523H158.129ZM146.686 54.2045C148.634 54.2045 150.155 54.2052 151.381 54.1215C152.618 54.0371 153.643 53.8629 154.589 53.471L153.667 51.2453C153.064 51.4953 152.332 51.642 151.217 51.718C150.092 51.7948 148.667 51.7955 146.686 51.7955V54.2045ZM157.579 47.3339C156.845 49.1048 155.438 50.5118 153.667 51.2453L154.589 53.471C156.951 52.493 158.826 50.617 159.805 48.2559L157.579 47.3339ZM146.686 1.20451C148.667 1.20451 150.092 1.20516 151.217 1.28194C152.332 1.35799 153.064 1.50466 153.667 1.75465L154.589 -0.471061C153.643 -0.862906 152.618 -1.03715 151.381 -1.12156C150.155 -1.20524 148.634 -1.20459 146.686 -1.20459V1.20451ZM160.538 12.6477C160.538 10.6998 160.539 9.17856 160.455 7.95218C160.371 6.71497 160.196 5.6901 159.805 4.7441L157.579 5.66602C157.829 6.26955 157.975 7.00162 158.052 8.11617C158.128 9.24153 158.129 10.6669 158.129 12.6477H160.538ZM153.667 1.75465C155.438 2.48817 156.845 3.89514 157.579 5.66602L159.805 4.7441C158.826 2.38292 156.951 0.506972 154.589 -0.471061L153.667 1.75465ZM12.9812 -1.20459C11.0333 -1.20459 9.51206 -1.20524 8.28567 -1.12156C7.04847 -1.03715 6.02359 -0.862906 5.0776 -0.471061L5.99952 1.75465C6.60303 1.50466 7.33512 1.35799 8.44966 1.28194C9.57502 1.20516 11.0004 1.20451 12.9812 1.20451V-1.20459ZM1.538 12.6477C1.538 10.6669 1.53865 9.24153 1.61544 8.11617C1.69148 7.00162 1.83816 6.26955 2.08814 5.66602L-0.13757 4.7441C-0.529415 5.6901 -0.703657 6.71497 -0.788071 7.95218C-0.871747 9.17856 -0.871094 10.6998 -0.871094 12.6477H1.538ZM5.0776 -0.471061C2.71642 0.506972 0.840463 2.38292 -0.13757 4.7441L2.08814 5.66602C2.82167 3.89514 4.22863 2.48817 5.99952 1.75465L5.0776 -0.471061Z" fill="#A6A6A6"/>
</g>
<defs>
<clipPath id="clip0_143_6701">
<rect width="160" height="53" fill="white"/>
</clipPath>
</defs>
</svg>
