<svg width="179" height="53" viewBox="0 0 179 53" fill="none" xmlns="http://www.w3.org/2000/svg">
<g clip-path="url(#clip0_143_6677)">
<path d="M0 6.02273C0 2.69647 2.69647 0 6.02273 0H172.852C176.179 0 178.875 2.69647 178.875 6.02273V46.9773C178.875 50.3035 176.179 53 172.852 53H6.02272C2.69646 53 0 50.3035 0 46.9773V6.02273Z" fill="black"/>
<path d="M90.28 28.8202C87.1636 28.8202 84.6236 31.1907 84.6236 34.4555C84.6236 37.7004 87.1636 40.0907 90.28 40.0907C93.3977 40.0907 95.9377 37.7004 95.9377 34.4555C95.9364 31.1907 93.3964 28.8202 90.28 28.8202ZM90.28 37.8726C88.5721 37.8726 87.1 36.4642 87.1 34.4568C87.1 32.4282 88.5734 31.0409 90.28 31.0409C91.9879 31.0409 93.46 32.4282 93.46 34.4568C93.46 36.4628 91.9879 37.8726 90.28 37.8726ZM77.9389 28.8202C74.8225 28.8202 72.2825 31.1907 72.2825 34.4555C72.2825 37.7004 74.8225 40.0907 77.9389 40.0907C81.0567 40.0907 83.5967 37.7004 83.5967 34.4555C83.5967 31.1907 81.0567 28.8202 77.9389 28.8202ZM77.9389 37.8726C76.231 37.8726 74.7589 36.4642 74.7589 34.4568C74.7589 32.4282 76.2323 31.0409 77.9389 31.0409C79.6469 31.0409 81.1189 32.4282 81.1189 34.4568C81.1203 36.4628 79.6469 37.8726 77.9389 37.8726ZM63.2606 30.5507V32.941H68.9819C68.811 34.2859 68.3632 35.2677 67.6795 35.9501C66.8474 36.7822 65.5449 37.7004 63.2606 37.7004C59.7387 37.7004 56.9854 34.8609 56.9854 31.3391C56.9854 27.8172 59.7387 24.9777 63.2606 24.9777C65.1606 24.9777 66.5479 25.725 67.5721 26.6857L69.2589 24.9989C67.8279 23.6329 65.9291 22.5874 63.2606 22.5874C58.4363 22.5874 54.3804 26.5147 54.3804 31.3391C54.3804 36.1634 58.4363 40.0907 63.2606 40.0907C65.8642 40.0907 67.8292 39.2361 69.3649 37.6355C70.9443 36.0561 71.4358 33.8354 71.4358 32.0426C71.4358 31.4888 71.3934 30.976 71.3073 30.5494H63.2606V30.5507ZM123.294 32.407C122.825 31.1483 121.394 28.8202 118.47 28.8202C115.567 28.8202 113.154 31.1045 113.154 34.4555C113.154 37.6143 115.545 40.0907 118.747 40.0907C121.329 40.0907 122.824 38.5113 123.444 37.5931L121.522 36.3118C120.882 37.2512 120.007 37.87 118.747 37.87C117.488 37.87 116.591 37.2936 116.014 36.1621L123.55 33.0457L123.294 32.407ZM115.609 34.2859C115.545 32.1076 117.296 30.9985 118.556 30.9985C119.538 30.9985 120.37 31.4901 120.648 32.1937L115.609 34.2859ZM109.483 39.7502H111.959V23.1863H109.483V39.7502ZM105.426 30.0803H105.341C104.786 29.4178 103.718 28.8202 102.375 28.8202C99.5563 28.8202 96.9739 31.2967 96.9739 34.478C96.9739 37.6368 99.5563 40.092 102.375 40.092C103.72 40.092 104.786 39.4944 105.341 38.8121H105.426V39.623C105.426 41.7787 104.274 42.9315 102.417 42.9315C100.901 42.9315 99.9618 41.8437 99.5775 40.9254L97.4217 41.8225C98.0405 43.3157 99.6835 45.1522 102.417 45.1522C105.32 45.1522 107.775 43.4443 107.775 39.2811V29.1634H105.428V30.0803H105.426ZM102.588 37.8726C100.88 37.8726 99.4503 36.4416 99.4503 34.478C99.4503 32.4918 100.88 31.0409 102.588 31.0409C104.274 31.0409 105.597 32.4918 105.597 34.478C105.597 36.4416 104.274 37.8726 102.588 37.8726ZM134.893 23.1863H128.969V39.7502H131.44V33.475H134.892C137.632 33.475 140.327 31.4914 140.327 28.3313C140.327 25.1712 137.633 23.1863 134.893 23.1863ZM134.957 31.1695H131.44V25.4918H134.957C136.805 25.4918 137.854 27.0222 137.854 28.3313C137.854 29.6139 136.805 31.1695 134.957 31.1695ZM150.236 28.7911C148.446 28.7911 146.593 29.5795 145.826 31.3271L148.02 32.2427C148.489 31.3271 149.363 31.0277 150.279 31.0277C151.557 31.0277 152.857 31.7949 152.878 33.1583V33.3292C152.431 33.0735 151.471 32.6906 150.3 32.6906C147.935 32.6906 145.526 33.9904 145.526 36.4191C145.526 38.6358 147.466 40.0629 149.639 40.0629C151.3 40.0629 152.217 39.3169 152.792 38.4424H152.877V39.721H155.265V33.3703C155.266 30.4314 153.069 28.7911 150.236 28.7911ZM149.937 37.8687C149.129 37.8687 147.999 37.4632 147.999 36.4615C147.999 35.1829 149.406 34.6926 150.621 34.6926C151.706 34.6926 152.219 34.9272 152.878 35.2465C152.686 36.7822 151.365 37.8687 149.937 37.8687ZM163.959 29.1528L161.125 36.3343H161.04L158.099 29.1528H155.436L159.847 39.1897L157.332 44.7732H159.91L166.709 29.1528H163.959ZM141.692 39.7502H144.163V23.1863H141.692V39.7502Z" fill="white"/>
<path d="M62.8289 13.5719C62.8289 14.6822 62.5003 15.566 61.8418 16.2259C61.0945 17.0103 60.1193 17.4025 58.9215 17.4025C57.774 17.4025 56.7975 17.005 55.9959 16.21C55.1929 15.4136 54.7915 14.4278 54.7915 13.2512C54.7915 12.0733 55.1929 11.0875 55.9959 10.2925C56.7975 9.49613 57.774 9.09863 58.9215 9.09863C59.4912 9.09863 60.0358 9.20993 60.5526 9.4312C61.0706 9.6538 61.4854 9.94928 61.7954 10.319L61.0971 11.0186C60.5711 10.3892 59.8463 10.0752 58.9202 10.0752C58.0828 10.0752 57.3593 10.3694 56.7485 10.9577C56.1377 11.546 55.8329 12.3105 55.8329 13.2499C55.8329 14.1893 56.1377 14.9539 56.7485 15.5422C57.3593 16.1305 58.0828 16.4246 58.9202 16.4246C59.8079 16.4246 60.5486 16.1291 61.1409 15.5369C61.5251 15.1513 61.7477 14.6147 61.8073 13.927H58.9202V12.9717H62.7719C62.8117 13.1797 62.8289 13.3798 62.8289 13.5719Z" fill="white"/>
<path d="M68.9374 10.2514H65.3175V12.7716H68.5823V13.7269H65.3175V16.247H68.9374V17.2249H64.2959V9.2749H68.9374V10.2514Z" fill="white"/>
<path d="M73.2447 17.2249H72.2232V10.2514H70.0024V9.2749H75.4654V10.2514H73.2447V17.2249Z" fill="white"/>
<path d="M79.418 17.2249V9.2749H80.4396V17.2249H79.418Z" fill="white"/>
<path d="M84.9698 17.2249H83.9482V10.2514H81.7275V9.2749H87.1905V10.2514H84.9698V17.2249Z" fill="white"/>
<path d="M97.5316 16.1982C96.7499 17.0011 95.7787 17.4026 94.6166 17.4026C93.4546 17.4026 92.4834 17.0011 91.703 16.1982C90.9212 15.3952 90.5317 14.4121 90.5317 13.2501C90.5317 12.088 90.9212 11.1049 91.703 10.3019C92.4834 9.49899 93.4546 9.09619 94.6166 9.09619C95.772 9.09619 96.7419 9.50032 97.5263 10.3072C98.3107 11.1142 98.7029 12.0947 98.7029 13.2501C98.7029 14.4121 98.3121 15.3952 97.5316 16.1982ZM92.4569 15.5317C93.0452 16.128 93.7647 16.4248 94.6166 16.4248C95.4686 16.4248 96.1894 16.1266 96.7764 15.5317C97.3647 14.9355 97.6602 14.1749 97.6602 13.2501C97.6602 12.3252 97.3647 11.5647 96.7764 10.9684C96.1894 10.3722 95.4686 10.0754 94.6166 10.0754C93.7647 10.0754 93.0452 10.3735 92.4569 10.9684C91.8699 11.5647 91.5744 12.3252 91.5744 13.2501C91.5744 14.1749 91.8699 14.9355 92.4569 15.5317Z" fill="white"/>
<path d="M100.137 17.2249V9.2749H101.38L105.243 15.4587H105.287L105.243 13.927V9.2749H106.265V17.2249H105.198L101.156 10.7403H101.112L101.156 12.272V17.2249H100.137Z" fill="white"/>
<path d="M62.8289 13.5719C62.8289 14.6822 62.5003 15.566 61.8418 16.2259C61.0945 17.0103 60.1193 17.4025 58.9215 17.4025C57.774 17.4025 56.7975 17.005 55.9959 16.21C55.1929 15.4136 54.7915 14.4278 54.7915 13.2512C54.7915 12.0733 55.1929 11.0875 55.9959 10.2925C56.7975 9.49613 57.774 9.09863 58.9215 9.09863C59.4912 9.09863 60.0358 9.20993 60.5526 9.4312C61.0706 9.6538 61.4854 9.94928 61.7954 10.319L61.0971 11.0186C60.5711 10.3892 59.8463 10.0752 58.9202 10.0752C58.0828 10.0752 57.3593 10.3694 56.7485 10.9577C56.1377 11.546 55.8329 12.3105 55.8329 13.2499C55.8329 14.1893 56.1377 14.9539 56.7485 15.5422C57.3593 16.1305 58.0828 16.4246 58.9202 16.4246C59.8079 16.4246 60.5486 16.1291 61.1409 15.5369C61.5251 15.1513 61.7477 14.6147 61.8073 13.927H58.9202V12.9717H62.7719C62.8117 13.1797 62.8289 13.3798 62.8289 13.5719Z" stroke="white" stroke-width="0.240909" stroke-miterlimit="10"/>
<path d="M68.9374 10.2514H65.3175V12.7716H68.5823V13.7269H65.3175V16.247H68.9374V17.2249H64.2959V9.2749H68.9374V10.2514Z" stroke="white" stroke-width="0.240909" stroke-miterlimit="10"/>
<path d="M73.2447 17.2249H72.2232V10.2514H70.0024V9.2749H75.4654V10.2514H73.2447V17.2249Z" stroke="white" stroke-width="0.240909" stroke-miterlimit="10"/>
<path d="M79.418 17.2249V9.2749H80.4396V17.2249H79.418Z" stroke="white" stroke-width="0.240909" stroke-miterlimit="10"/>
<path d="M84.9698 17.2249H83.9482V10.2514H81.7275V9.2749H87.1905V10.2514H84.9698V17.2249Z" stroke="white" stroke-width="0.240909" stroke-miterlimit="10"/>
<path d="M97.5316 16.1982C96.7499 17.0011 95.7787 17.4026 94.6166 17.4026C93.4546 17.4026 92.4834 17.0011 91.703 16.1982C90.9212 15.3952 90.5317 14.4121 90.5317 13.2501C90.5317 12.088 90.9212 11.1049 91.703 10.3019C92.4834 9.49899 93.4546 9.09619 94.6166 9.09619C95.772 9.09619 96.7419 9.50032 97.5263 10.3072C98.3107 11.1142 98.7029 12.0947 98.7029 13.2501C98.7029 14.4121 98.3121 15.3952 97.5316 16.1982ZM92.4569 15.5317C93.0452 16.128 93.7647 16.4248 94.6166 16.4248C95.4686 16.4248 96.1894 16.1266 96.7764 15.5317C97.3647 14.9355 97.6602 14.1749 97.6602 13.2501C97.6602 12.3252 97.3647 11.5647 96.7764 10.9684C96.1894 10.3722 95.4686 10.0754 94.6166 10.0754C93.7647 10.0754 93.0452 10.3735 92.4569 10.9684C91.8699 11.5647 91.5744 12.3252 91.5744 13.2501C91.5744 14.1749 91.8699 14.9355 92.4569 15.5317Z" stroke="white" stroke-width="0.240909" stroke-miterlimit="10"/>
<path d="M100.137 17.2249V9.2749H101.38L105.243 15.4587H105.287L105.243 13.927V9.2749H106.265V17.2249H105.198L101.156 10.7403H101.112L101.156 12.272V17.2249H100.137Z" stroke="white" stroke-width="0.240909" stroke-miterlimit="10"/>
<g filter="url(#filter0_ii_143_6677)">
<path d="M13.8279 9.98735C13.4423 10.3954 13.2144 11.0288 13.2144 11.849V41.1527C13.2144 41.9742 13.4423 42.6062 13.8279 43.0143L13.9259 43.1097L30.3414 26.6943V26.5008V26.3074L13.9259 9.89062L13.8279 9.98735Z" fill="url(#paint0_linear_143_6677)"/>
<path d="M35.8122 32.1678L30.3413 26.6942V26.5007V26.3073L35.8135 20.835L35.9367 20.9053L42.42 24.5888C44.271 25.6408 44.271 27.362 42.42 28.4154L35.9367 32.0989L35.8122 32.1678Z" fill="url(#paint1_linear_143_6677)"/>
<g filter="url(#filter1_i_143_6677)">
<path d="M35.9365 32.0978L30.3397 26.501L13.8276 43.0145C14.4371 43.6611 15.4454 43.7406 16.5809 43.0966L35.9365 32.0978Z" fill="url(#paint2_linear_143_6677)"/>
</g>
<path d="M35.9365 20.9043L16.5809 9.90673C15.4454 9.26145 14.4371 9.34228 13.8276 9.98888L30.3411 26.5024L35.9365 20.9043Z" fill="url(#paint3_linear_143_6677)"/>
</g>
<path d="M6.02269 1.20451H172.852V-1.20459H6.02269V1.20451ZM177.67 6.02269V46.9773H180.08V6.02269H177.67ZM172.852 51.7955H6.02268V54.2045H172.852V51.7955ZM1.20451 46.9773V6.02269H-1.20459V46.9773H1.20451ZM6.02268 51.7955C3.36168 51.7955 1.20451 49.6383 1.20451 46.9773H-1.20459C-1.20459 50.9688 2.03117 54.2045 6.02268 54.2045V51.7955ZM177.67 46.9773C177.67 49.6383 175.513 51.7955 172.852 51.7955V54.2045C176.844 54.2045 180.08 50.9688 180.08 46.9773H177.67ZM172.852 1.20451C175.513 1.20451 177.67 3.36168 177.67 6.02269H180.08C180.08 2.03118 176.844 -1.20459 172.852 -1.20459V1.20451ZM6.02269 -1.20459C2.03117 -1.20459 -1.20459 2.03118 -1.20459 6.02269H1.20451C1.20451 3.36168 3.36168 1.20451 6.02269 1.20451V-1.20459Z" fill="#A6A6A6"/>
</g>
<defs>
<filter id="filter0_ii_143_6677" x="13.2144" y="9.28074" width="30.5938" height="34.4414" filterUnits="userSpaceOnUse" color-interpolation-filters="sRGB">
<feFlood flood-opacity="0" result="BackgroundImageFix"/>
<feBlend mode="normal" in="SourceGraphic" in2="BackgroundImageFix" result="shape"/>
<feColorMatrix in="SourceAlpha" type="matrix" values="0 0 0 0 0 0 0 0 0 0 0 0 0 0 0 0 0 0 127 0" result="hardAlpha"/>
<feOffset dy="-0.180682"/>
<feGaussianBlur stdDeviation="2"/>
<feComposite in2="hardAlpha" operator="arithmetic" k2="-1" k3="1"/>
<feColorMatrix type="matrix" values="0 0 0 0 0 0 0 0 0 0 0 0 0 0 0 0 0 0 0.12 0"/>
<feBlend mode="normal" in2="shape" result="effect1_innerShadow_143_6677"/>
<feColorMatrix in="SourceAlpha" type="matrix" values="0 0 0 0 0 0 0 0 0 0 0 0 0 0 0 0 0 0 127 0" result="hardAlpha"/>
<feOffset dy="0.180682"/>
<feGaussianBlur stdDeviation="2"/>
<feComposite in2="hardAlpha" operator="arithmetic" k2="-1" k3="1"/>
<feColorMatrix type="matrix" values="0 0 0 0 1 0 0 0 0 1 0 0 0 0 1 0 0 0 0.25 0"/>
<feBlend mode="normal" in2="effect1_innerShadow_143_6677" result="effect2_innerShadow_143_6677"/>
</filter>
<filter id="filter1_i_143_6677" x="13.8276" y="26.3203" width="22.1089" height="17.2212" filterUnits="userSpaceOnUse" color-interpolation-filters="sRGB">
<feFlood flood-opacity="0" result="BackgroundImageFix"/>
<feBlend mode="normal" in="SourceGraphic" in2="BackgroundImageFix" result="shape"/>
<feColorMatrix in="SourceAlpha" type="matrix" values="0 0 0 0 0 0 0 0 0 0 0 0 0 0 0 0 0 0 127 0" result="hardAlpha"/>
<feOffset dy="-0.180682"/>
<feGaussianBlur stdDeviation="2"/>
<feComposite in2="hardAlpha" operator="arithmetic" k2="-1" k3="1"/>
<feColorMatrix type="matrix" values="0 0 0 0 0 0 0 0 0 0 0 0 0 0 0 0 0 0 0.08 0"/>
<feBlend mode="normal" in2="shape" result="effect1_innerShadow_143_6677"/>
</filter>
<linearGradient id="paint0_linear_143_6677" x1="28.8863" y1="11.5389" x2="6.65005" y2="33.7751" gradientUnits="userSpaceOnUse">
<stop stop-color="#00A0FF"/>
<stop offset="0.0066" stop-color="#00A1FF"/>
<stop offset="0.2601" stop-color="#00BEFF"/>
<stop offset="0.5122" stop-color="#00D2FF"/>
<stop offset="0.7604" stop-color="#00DFFF"/>
<stop offset="1" stop-color="#00E3FF"/>
</linearGradient>
<linearGradient id="paint1_linear_143_6677" x1="44.8295" y1="26.5008" x2="12.7699" y2="26.5008" gradientUnits="userSpaceOnUse">
<stop stop-color="#FFE000"/>
<stop offset="0.4087" stop-color="#FFBD00"/>
<stop offset="0.7754" stop-color="#FFA500"/>
<stop offset="1" stop-color="#FF9C00"/>
</linearGradient>
<linearGradient id="paint2_linear_143_6677" x1="32.8971" y1="29.5404" x2="2.74216" y2="59.6955" gradientUnits="userSpaceOnUse">
<stop stop-color="#FF3A44"/>
<stop offset="1" stop-color="#C31162"/>
</linearGradient>
<linearGradient id="paint3_linear_143_6677" x1="9.66899" y1="0.233962" x2="23.134" y2="13.6991" gradientUnits="userSpaceOnUse">
<stop stop-color="#32A071"/>
<stop offset="0.0685" stop-color="#2DA771"/>
<stop offset="0.4762" stop-color="#15CF74"/>
<stop offset="0.8009" stop-color="#06E775"/>
<stop offset="1" stop-color="#00F076"/>
</linearGradient>
<clipPath id="clip0_143_6677">
<rect width="179" height="53" fill="white"/>
</clipPath>
</defs>
</svg>
